<?xml version="1.0"?>
<svg width="24" height="24" xmlns="http://www.w3.org/2000/svg" xmlns:svg="http://www.w3.org/2000/svg">
 <g class="layer">
  <title>Layer 1</title>
  <path d="m9,12l10,0m-9,-3.5c0,0 1,0.5 2,0.5c1.5,0 2.5,-1 4,-1c1,0 2,0.5 2,0.5m-8,7c0,0 1,0.5 2,0.5c1.5,0 2.5,-1 4,-1c1,0 2,0.5 2,0.5m5,-3.5c0,4.97 -4.03,9 -9,9c-4.97,0 -9,-4.03 -9,-9c0,-4.97 4.03,-9 9,-9c4.97,0 9,4.03 9,9z" fill="#1ccb8f" id="svg_1" stroke="#000000" stroke-linecap="round" stroke-linejoin="round" stroke-width="2"/>
 </g>

</svg>